<svg id="Capa_1" enable-background="new 0 0 512 512" height="512" viewBox="0 0 512 512" width="512" xmlns="http://www.w3.org/2000/svg"><g><path d="m260.585 34.395c-134.168 0-242.933 86.846-242.933 193.976 0 72.563 49.903 135.814 123.798 169.08 10.453 4.706 13.246 18.273 5.461 26.686-16.249 17.559-38.659 32.29-69.288 36.711-3.46.499-4.188 5.175-1.047 6.71 29.286 14.32 114.726 45.63 176.131-38.432 3.097-4.24 8.024-6.751 13.274-6.837 138.503-2.262 237.538-93.949 237.538-193.918-.001-107.13-108.766-193.976-242.934-193.976z" fill="#ffe07d"/><path d="m331.026 42.688c77.87 32.315 131.065 97.303 131.065 172.219 0 99.969-99.034 191.656-237.538 193.918-5.25.086-10.177 2.597-13.274 6.837-41.064 56.217-92.874 60.833-131.454 53.442 31.935 14.807 113.604 41.172 172.881-39.978 3.097-4.24 8.024-6.751 13.274-6.837 138.503-2.262 237.538-93.949 237.538-193.918 0-87.569-72.677-161.573-172.492-185.683z" fill="#ffd064"/><circle cx="61.415" cy="80.633" fill="#dd636e" r="53.915"/><path d="m61.415 26.718c-4.372 0-8.618.534-12.689 1.516 23.651 5.708 41.226 26.995 41.226 52.399s-17.575 46.691-41.226 52.399c4.071.982 8.316 1.516 12.689 1.516 29.777 0 53.915-24.139 53.915-53.915s-24.138-53.915-53.915-53.915z" fill="#da4a54"/><circle cx="450.585" cy="381.011" fill="#dd636e" r="53.915"/><path d="m450.585 327.096c-4.372 0-8.618.534-12.689 1.516 23.651 5.708 41.226 26.995 41.226 52.399s-17.575 46.691-41.226 52.399c4.071.982 8.316 1.516 12.689 1.516 29.777 0 53.915-24.139 53.915-53.915 0-29.777-24.138-53.915-53.915-53.915z" fill="#da4a54"/><g><path d="m138.371 404.289c2.768 1.246 4.701 3.665 5.306 6.637.6 2.951-.228 5.909-2.271 8.117-5.846 6.316-12.231 11.887-18.979 16.555-3.406 2.357-4.257 7.029-1.9 10.436 1.456 2.104 3.796 3.233 6.175 3.233 1.472 0 2.959-.433 4.261-1.333 7.646-5.291 14.863-11.583 21.453-18.703 5.36-5.793 7.533-13.554 5.96-21.293-1.577-7.76-6.624-14.074-13.847-17.326-35.745-16.092-65.719-39.417-86.682-67.455-21.39-28.609-32.695-61.386-32.695-94.785 0-30.328 9.39-60.343 27.184-86.998 2.964.441 5.994.676 9.079.676 35.062 0 63.254-29.501 61.316-64.813 40.293-23.131 87.858-35.34 137.854-35.34 72.34 0 139.651 25.838 184.675 70.889 1.465 1.466 3.385 2.198 5.305 2.198 1.919 0 3.838-.731 5.302-2.195 2.93-2.928 2.932-7.677.003-10.606-47.815-47.845-118.993-75.285-195.284-75.285-50.75 0-99.199 11.997-140.765 34.773-8.011-24.609-31.158-42.45-58.405-42.45-8.562 0-16.869 1.743-24.689 5.181-3.792 1.667-5.516 6.093-3.849 9.885s6.095 5.515 9.884 3.848c5.907-2.597 12.184-3.913 18.654-3.913 25.594 0 46.415 20.821 46.415 46.415s-20.821 46.415-46.415 46.415-46.416-20.825-46.416-46.419c0-9.303 2.74-18.276 7.925-25.948 2.318-3.433 1.416-8.095-2.016-10.414-3.432-2.318-8.096-1.415-10.414 2.016-6.866 10.162-10.495 22.039-10.495 34.346 0 25.287 15.365 47.047 37.246 56.451-17.747 28.113-27.094 59.507-27.094 91.286 0 36.663 12.339 72.545 35.682 103.767 22.481 30.07 54.48 55.019 92.537 72.152z"/><path d="m29.827 70.173c0 4.143 3.357 7.5 7.5 7.5h3.28c-.94 2.165-2.732 4.836-6.045 7.98-3.004 2.853-3.127 7.6-.275 10.604 1.475 1.553 3.456 2.336 5.44 2.336 1.854 0 3.712-.684 5.163-2.061 9.284-8.814 13.059-18.157 11.219-27.77-.677-3.534-3.768-6.09-7.366-6.09h-11.416c-4.142.001-7.5 3.359-7.5 7.501z"/><path d="m71.016 85.654c-3.004 2.853-3.127 7.6-.275 10.604 1.475 1.553 3.456 2.336 5.44 2.336 1.854 0 3.712-.684 5.163-2.061 9.283-8.813 13.058-18.156 11.219-27.769-.676-3.534-3.768-6.091-7.366-6.091h-11.418c-4.143 0-7.5 3.357-7.5 7.5s3.357 7.5 7.5 7.5h3.28c-.939 2.166-2.731 4.836-6.043 7.981z"/><path d="m479.035 326.608c20.949-30.209 31.984-64.007 31.984-98.238 0-35.999-11.936-71.33-34.517-102.175-2.448-3.343-7.14-4.066-10.482-1.621-3.342 2.447-4.067 7.14-1.621 10.482 20.687 28.255 31.62 60.522 31.62 93.313 0 32.329-10.892 64.345-31.533 92.831-4.47-1.039-9.119-1.606-13.901-1.606-35.096 0-63.416 29.6-61.294 65.11-36.395 18.96-79.009 29.358-123.434 30.083-7.583.124-14.763 3.829-19.208 9.912-24.959 34.169-56.672 52.014-94.257 53.037-24.196.652-46.182-5.83-61.229-11.896 3.676-.907 7.284-1.972 10.801-3.19 3.914-1.355 5.988-5.627 4.633-9.541-1.355-3.913-5.626-5.988-9.541-4.633-6.529 2.261-13.428 3.926-20.504 4.947-4.828.696-8.581 4.402-9.338 9.223-.757 4.823 1.681 9.505 6.065 11.647 24.188 11.828 52.453 19.165 79.521 18.438 42.47-1.156 78.12-21.068 105.961-59.183 1.687-2.309 4.432-3.715 7.341-3.763 45.127-.737 88.556-10.998 126.105-29.73 8.035 24.567 31.16 42.369 58.377 42.369 33.864 0 61.415-27.551 61.415-61.415.001-23.6-13.389-44.122-32.964-54.401zm-28.45 100.817c-25.594 0-46.415-20.821-46.415-46.415s20.821-46.415 46.415-46.415 46.415 20.822 46.415 46.415-20.821 46.415-46.415 46.415z"/><path d="m437.913 363.051h-11.416c-4.143 0-7.5 3.357-7.5 7.5s3.357 7.5 7.5 7.5h3.28c-.94 2.165-2.731 4.835-6.044 7.979-3.005 2.852-3.128 7.599-.276 10.603 1.475 1.554 3.455 2.337 5.44 2.337 1.854 0 3.712-.684 5.162-2.061 9.285-8.813 13.061-18.156 11.22-27.769-.676-3.533-3.767-6.089-7.366-6.089z"/><path d="m474.366 363.051h-11.417c-4.143 0-7.5 3.357-7.5 7.5s3.357 7.5 7.5 7.5h3.28c-.939 2.165-2.731 4.835-6.043 7.979-3.005 2.852-3.128 7.599-.276 10.603 1.475 1.554 3.455 2.337 5.44 2.337 1.854 0 3.712-.684 5.162-2.061 9.284-8.812 13.059-18.154 11.22-27.768-.675-3.534-3.767-6.09-7.366-6.09z"/><path d="m123.671 146.798h132.999c4.143 0 7.5-3.357 7.5-7.5s-3.357-7.5-7.5-7.5h-132.999c-4.143 0-7.5 3.357-7.5 7.5s3.357 7.5 7.5 7.5z"/><path d="m396.67 167.415h-272.999c-4.143 0-7.5 3.357-7.5 7.5s3.357 7.5 7.5 7.5h272.999c4.143 0 7.5-3.357 7.5-7.5s-3.358-7.5-7.5-7.5z"/><path d="m404.17 210.533c0-4.143-3.357-7.5-7.5-7.5h-272.999c-4.143 0-7.5 3.357-7.5 7.5s3.357 7.5 7.5 7.5h272.999c4.142 0 7.5-3.358 7.5-7.5z"/><path d="m396.67 238.65h-272.999c-4.143 0-7.5 3.357-7.5 7.5s3.357 7.5 7.5 7.5h272.999c4.143 0 7.5-3.357 7.5-7.5s-3.358-7.5-7.5-7.5z"/><path d="m404.17 281.768c0-4.143-3.357-7.5-7.5-7.5h-272.999c-4.143 0-7.5 3.357-7.5 7.5s3.357 7.5 7.5 7.5h272.999c4.142 0 7.5-3.357 7.5-7.5z"/><path d="m396.67 309.885h-140c-4.143 0-7.5 3.357-7.5 7.5s3.357 7.5 7.5 7.5h140c4.143 0 7.5-3.357 7.5-7.5s-3.358-7.5-7.5-7.5z"/></g></g></svg>